<svg xmlns="http://www.w3.org/2000/svg" xmlns:xlink="http://www.w3.org/1999/xlink" version="1.1" width="197.658pt" height="117.483pt" viewBox="0 0 197.658 117.483">
<path transform="matrix(1,0,0,-1,18.653,98.83)" stroke-width=".3985" stroke-linecap="butt" stroke-miterlimit="10" stroke-linejoin="miter" fill="none" stroke="#000000" d="M12.78497 0C12.78497 7.06102 7.06102 12.78497 0 12.78497-7.06102 12.78497-12.78497 7.06102-12.78497 0-12.78497-7.06102-7.06102-12.78497 0-12.78497 7.06102-12.78497 12.78497-7.06102 12.78497 0ZM0 0"/>
<text xml:space="preserve" transform="matrix(1 0 -0 1 0 117.483)" font-size="9.9626" font-family="CMMI10" font-style="italic"><tspan y="-15.997" x="11.586">M</tspan></text>
<text xml:space="preserve" transform="matrix(1 0 -0 1 0 117.483)" font-size="6.9738" font-family="CMR7"><tspan y="-14.502" x="21.251">1</tspan></text>
<path transform="matrix(1,0,0,-1,18.653,98.83)" stroke-width=".3985" stroke-linecap="butt" stroke-miterlimit="10" stroke-linejoin="miter" fill="none" stroke="#000000" d="M92.96198 80.17699C92.96198 87.23802 87.23802 92.96198 80.17699 92.96198 73.11597 92.96198 67.392 87.23802 67.392 80.17699 67.392 73.11597 73.11597 67.392 80.17699 67.392 87.23802 67.392 92.96198 73.11597 92.96198 80.17699ZM80.17699 80.17699"/>
<text xml:space="preserve" transform="matrix(1 0 -0 1 0 117.483)" font-size="9.9626" font-family="CMMI10" font-style="italic"><tspan y="-96.173" x="91.762">M</tspan></text>
<text xml:space="preserve" transform="matrix(1 0 -0 1 0 117.483)" font-size="6.9738" font-family="CMR7"><tspan y="-94.67799" x="101.427">2</tspan></text>
<path transform="matrix(1,0,0,-1,18.653,98.83)" stroke-width=".3985" stroke-linecap="butt" stroke-miterlimit="10" stroke-linejoin="miter" fill="none" stroke="#000000" d="M173.13898 0C173.13898 7.06102 167.41503 12.78497 160.35399 12.78497 153.29296 12.78497 147.569 7.06102 147.569 0 147.569-7.06102 153.29296-12.78497 160.35399-12.78497 167.41503-12.78497 173.13898-7.06102 173.13898 0ZM160.35399 0"/>
<text xml:space="preserve" transform="matrix(1 0 -0 1 0 117.483)" font-size="9.9626" font-family="CMMI10" font-style="italic"><tspan y="-15.997" x="171.938">M</tspan></text>
<text xml:space="preserve" transform="matrix(1 0 -0 1 0 117.483)" font-size="6.9738" font-family="CMR7"><tspan y="-14.502" x="181.603">3</tspan></text>
<path transform="matrix(1,0,0,-1,18.653,98.83)" stroke-width=".79701" stroke-linecap="butt" stroke-miterlimit="10" stroke-linejoin="miter" fill="none" stroke="#000000" d="M7.44727 10.63586C27.16849 38.80035 41.37663 53.0085 69.54112 72.72972"/>
<text xml:space="preserve" transform="matrix(1 0 -0 1 0 117.483)" font-size="9.9626" font-family="CMR10"><tspan y="-61.357" x="42.446">a</tspan></text>
<path transform="matrix(1,0,0,-1,18.653,98.83)" stroke-width=".79701" stroke-linecap="butt" stroke-miterlimit="10" stroke-linejoin="miter" fill="none" stroke="#000000" d="M3.36017 12.54181C12.57161 46.9192 33.25777 67.60538 67.63518 76.81682"/>
<text xml:space="preserve" transform="matrix(1 0 -0 1 0 117.483)" font-size="9.9626" font-family="CMR10"><tspan y="-69.31" x="32.625">b</tspan></text>
<path transform="matrix(1,0,0,-1,18.653,98.83)" stroke-width=".79701" stroke-linecap="butt" stroke-miterlimit="10" stroke-linejoin="miter" fill="none" stroke="#000000" d="M10.63586 7.44727C38.80035 27.16849 53.0085 41.37663 72.72972 69.54112"/>
<text xml:space="preserve" transform="matrix(1 0 -0 1 0 117.483)" font-size="9.9626" font-family="CMR10"><tspan y="-51.836" x="52.52">c</tspan></text>
<path transform="matrix(1,0,0,-1,18.653,98.83)" stroke-width=".79701" stroke-linecap="butt" stroke-miterlimit="10" stroke-linejoin="miter" fill="none" stroke="#000000" d="M12.54181 3.36017C46.9192 12.57161 67.60538 33.25777 76.81682 67.63518"/>
<text xml:space="preserve" transform="matrix(1 0 -0 1 0 117.483)" font-size="9.9626" font-family="CMR10"><tspan y="-41.254" x="60.68">d</tspan></text>
<path transform="matrix(1,0,0,-1,18.653,98.83)" stroke-width=".79701" stroke-linecap="butt" stroke-miterlimit="10" stroke-linejoin="miter" fill="none" stroke="#000000" d="M90.81285 72.72972C118.97736 53.0085 133.1855 38.80035 152.90673 10.63586"/>
<text xml:space="preserve" transform="matrix(1 0 -0 1 0 117.483)" font-size="9.9626" font-family="CMR10"><tspan y="-67.221" x="147.397">e</tspan></text>
<path transform="matrix(1,0,0,-1,18.653,98.83)" stroke-width=".79701" stroke-linecap="butt" stroke-miterlimit="10" stroke-linejoin="miter" fill="none" stroke="#000000" d="M87.62425 69.54112C107.34547 41.37663 121.55363 27.16849 149.71813 7.44727"/>
<text xml:space="preserve" transform="matrix(1 0 -0 1 0 117.483)" font-size="9.9626" font-family="CMR10"><tspan y="-43.343" x="127.394">f</tspan></text>
</svg>
