<svg xmlns="http://www.w3.org/2000/svg" xmlns:xlink="http://www.w3.org/1999/xlink" version="1.1" width="186.797pt" height="107.557pt" viewBox="0 0 186.797 107.557">
<path transform="matrix(1,0,0,-1,87.231,100.099)" stroke-width=".3985" stroke-linecap="butt" stroke-miterlimit="10" stroke-linejoin="miter" fill="none" stroke="#000000" d="M-85.04042 0H84.58214"/>
<path transform="matrix(1,0,0,-1,171.81314,100.099)" stroke-width=".31879" stroke-linecap="round" stroke-linejoin="round" fill="none" stroke="#000000" d="M-1.19551 1.59401C-1.09587 .99626 0 .09961 .29886 0 0-.09961-1.09587-.99626-1.19551-1.59401"/>
<text xml:space="preserve" transform="matrix(1 0 -0 1 .000015258789 107.557)" font-size="9.9626" font-family="CMMI10" font-style="italic"><tspan y="-5.313" x="175.79">x</tspan></text>
<path transform="matrix(1,0,0,-1,87.231,100.099)" stroke-width=".3985" stroke-linecap="butt" stroke-miterlimit="10" stroke-linejoin="miter" fill="none" stroke="#000000" d="M0 0V84.58214"/>
<path transform="matrix(0,-1,-1,-0,87.231,15.516861)" stroke-width=".31879" stroke-linecap="round" stroke-linejoin="round" fill="none" stroke="#000000" d="M-1.19551 1.59401C-1.09587 .99626 0 .09961 .29886 0 0-.09961-1.09587-.99626-1.19551-1.59401"/>
<text xml:space="preserve" transform="matrix(1 0 -0 1 0 107.557)" font-size="9.9626" font-family="CMMI10" font-style="italic"><tspan y="-97.954" x="84.61">y</tspan></text>
<path transform="matrix(1,0,0,-1,87.231,100.099)" stroke-width="1.59404" stroke-linecap="butt" stroke-miterlimit="10" stroke-linejoin="miter" fill="none" stroke="#bf0040" d="M5.66927 70.867 6.35614 63.21065 7.04301 57.04353 7.72986 51.97722 8.41673 47.73573 9.1036 44.13313 9.79048 41.0392 10.47734 38.34837 11.16422 35.9893 11.85109 33.90102 12.53796 32.04543 13.22484 30.37971 13.9117 28.87968 14.59857 27.52368 15.28545 26.28575 15.97232 25.15598 16.65918 24.1183 17.34605 23.16412 18.03293 22.28088 18.7198 21.46295 19.40668 20.70299 20.09354 19.99577 20.78041 19.33487 21.46729 18.71547 22.15416 18.13544 22.84102 17.58958 23.52788 17.07658 24.21475 16.5917 24.90163 16.13365 25.5885 15.69981 26.27536 15.2902 26.96223 14.90048 27.64911 14.53024 28.33598 14.17728 29.02284 13.84164 29.70972 13.52156 30.39659 13.21791 31.08347 12.92336 31.77034 12.64264 32.4572 12.37923 33.14407 12.11841 33.83095 11.87445 34.51782 11.63914 35.20468 11.41249 35.89156 11.19408 36.57843 10.97867 37.2653 10.78012 37.95218 10.58463 38.63904 10.39777 39.3259 10.2161 40.01277 10.04048 40.69965 9.8705 41.3865 9.70613 42.07338 9.5474 42.76025 9.39429 43.44713 9.24678 44.134 9.10231 44.82086 8.96303 45.50774 8.82722 46.19461 8.694 46.88148 8.56943 47.56834 8.44441 48.25522 8.32245 48.9421 8.20912 49.62897 8.09581 50.31584 7.98247 51.0027 7.87477 51.68958 7.77269 52.37645 7.67061 53.06332 7.56854 53.75018 7.47511 54.43706 7.37865 55.12392 7.28783 55.81079 7.19742 56.49767 7.10918 57.18452 7.0244 57.8714 6.94221 58.55827 6.86003 59.24515 6.78046 59.932 6.7013 60.61888 6.62732 61.30576 6.55379 61.99263 6.48027 62.6795 6.40933 63.36636 6.33969 64.05324 6.27177 64.74011 6.20518 65.42699 6.14073 66.11385 6.07628 66.80072 6.01399 67.4876 5.95302 68.17447 5.89201 68.86134 5.8345 69.5482 5.7761 70.23508 5.72072 70.92194 5.6645 71.60881 5.60828 72.29567 5.55766 72.98254 5.50533 73.66942 5.45386"/>
<path transform="matrix(1,0,0,-1,87.231,100.099)" stroke-width="1.59404" stroke-linecap="butt" stroke-miterlimit="10" stroke-linejoin="miter" fill="none" stroke="#bf0040" d="M-73.70186 5.45125-73.01498 5.5023-72.32811 5.55464-71.64125 5.6074-70.95438 5.66364-70.2675 5.7177-69.58064 5.7735-68.89378 5.83145-68.20691 5.88942-67.52003 5.94997-66.83316 6.0114-66.14629 6.07324-65.45943 6.13812-64.77255 6.20215-64.08568 6.26875-63.3988 6.33624-62.71194 6.40631-62.02507 6.47723-61.3382 6.54819-60.65132 6.62474-59.96445 6.69827-59.27759 6.77786-58.59071 6.85442-57.90384 6.9366-57.21696 7.02138-56.5301 7.10658-55.84323 7.1944-55.15636 7.28522-54.46948 7.37563-53.78262 7.46948-53.09576 7.56595-52.40889 7.665-51.72202 7.76706-51.03514 7.87175-50.34828 7.97945-49.6614 8.09018-48.97453 8.20349-48.28766 8.31985-47.6008 8.44183-46.91393 8.56337-46.22705 8.68839-45.54018 8.8216-44.8533 8.95786-44.16644 9.0967-43.47957 9.23813-42.7927 9.38866-42.10582 9.54135-41.41896 9.69748-40.73209 9.86487-40.04521 10.03185-39.35834 10.20787-38.67146 10.38911-37.98462 10.57597-37.29774 10.77191-36.61087 10.97304-35.924 11.18585-35.23714 11.40125-34.55026 11.62791-33.86339 11.8632-33.17651 12.10672-32.48964 12.36755-31.80278 12.6314-31.1159 12.91211-30.42903 13.20103-29.74216 13.50426-29.0553 13.82477-28.36842 14.15651-27.68155 14.51337-26.99467 14.8819-26.3078 15.27203-25.62094 15.68034-24.93407 16.11246-24.2472 16.56921-23.56032 17.05235-22.87346 17.56406-22.1866 18.10861-21.49973 18.68692-20.81285 19.30373-20.12598 19.9629-19.43912 20.66881-18.75224 21.4262-18.06537 22.24109-17.3785 23.12001-16.69164 24.0716-16.00476 25.10492-15.31789 26.23038-14.63101 27.46269-13.94414 28.81177-13.25728 30.30576-12.5704 31.96152-11.88353 33.80888-11.19666 35.8842-10.5098 38.22943-9.82292 40.90294-9.13605 43.9744-8.44917 47.55148-7.7623 51.7618-7.07544 56.784-6.38858 62.89015-5.7017 70.46777"/>
</svg>
