<svg xmlns="http://www.w3.org/2000/svg" xmlns:xlink="http://www.w3.org/1999/xlink" version="1.1" width="186.797pt" height="85.283pt" viewBox="0 0 186.797 85.283">
<path transform="matrix(1,0,0,-1,87.231,49.075998)" stroke-width=".3985" stroke-linecap="butt" stroke-miterlimit="10" stroke-linejoin="miter" fill="none" stroke="#000000" d="M-85.04042 0H84.58214"/>
<path transform="matrix(1,0,0,-1,171.81314,49.075998)" stroke-width=".31879" stroke-linecap="round" stroke-linejoin="round" fill="none" stroke="#000000" d="M-1.19551 1.59401C-1.09587 .99626 0 .09961 .29886 0 0-.09961-1.09587-.99626-1.19551-1.59401"/>
<text xml:space="preserve" transform="matrix(1 0 -0 1 .000015258789 85.283)" font-size="9.9626" font-family="CMMI10" font-style="italic"><tspan y="-34.063" x="175.79">x</tspan></text>
<path transform="matrix(1,0,0,-1,87.231,49.075998)" stroke-width=".3985" stroke-linecap="butt" stroke-miterlimit="10" stroke-linejoin="miter" fill="none" stroke="#000000" d="M0-34.01608V33.5578"/>
<path transform="matrix(0,-1,-1,-0,87.231,15.518196)" stroke-width=".31879" stroke-linecap="round" stroke-linejoin="round" fill="none" stroke="#000000" d="M-1.19551 1.59401C-1.09587 .99626 0 .09961 .29886 0 0-.09961-1.09587-.99626-1.19551-1.59401"/>
<text xml:space="preserve" transform="matrix(1 0 -0 1 0 85.283)" font-size="9.9626" font-family="CMMI10" font-style="italic"><tspan y="-75.68" x="84.61">y</tspan></text>
<path transform="matrix(1,0,0,-1,87.231,49.075998)" stroke-width="1.59404" stroke-linecap="butt" stroke-miterlimit="10" stroke-linejoin="miter" fill="none" stroke="#bf0040" d="M-82.20555-27.52281-80.54504-27.07817-78.88454-26.54051-77.22401-25.91333-75.5635-25.19576-73.903-24.39168-72.24248-23.5054-70.58197-22.53738-68.92146-21.49193-67.26093-20.37383-65.60042-19.18434-63.93991-17.92998-62.2794-16.61377-60.61888-15.24089-58.95837-13.81569-57.29787-12.34247-55.63734-10.82729-53.97684-9.27533-52.31633-7.69095-50.6558-6.0806-48.9953-4.44951-47.33478-2.8024-45.67426-1.14665-44.01375 .51297-42.35324 2.17133-40.69272 3.82231-39.03221 5.46034-37.3717 7.0789-35.71118 8.67366-34.05067 10.23859-32.39017 11.76848-30.72964 13.25813-29.06914 14.7024-27.40862 16.09601-25.7481 17.4343-24.08759 18.71288-22.42708 19.927-20.76657 21.07323-19.10605 22.14679-17.44554 23.14465-15.78503 24.06337-14.12451 24.8986-12.464 25.64906-10.8035 26.31213-9.14297 26.88394-7.48247 27.36407-5.82195 27.7499-4.16142 28.04056-2.50092 28.23563-.84041 28.33295 .82008 28.33337 2.48059 28.2378 4.1411 28.04358 5.80162 27.75378 7.46213 27.36925 9.12263 26.89044 10.78316 26.31949 12.44366 25.65814 14.10419 24.90855 15.76471 24.07417 17.42522 23.15677 19.08572 22.15933 20.74623 21.08708 22.40675 19.94173 24.06726 18.72801 25.72777 17.45073 27.38829 16.11246 29.0488 14.71968 30.7093 13.2763 32.36983 11.78708 34.03035 10.25761 35.69086 8.69313 37.35138 7.09836 39.01189 5.4798 40.6724 3.84221 42.33292 2.19167 43.99342 .53331 45.65393-1.12631 47.31445-2.7825 48.97496-4.42918 50.63547-6.0607 52.29599-7.67105 53.95651-9.2563 55.61702-10.80824 57.27754-12.32385 58.93805-13.79794 60.59856-15.22359 62.25908-16.59691 63.91959-17.91441 65.5801-19.1692 67.2406-20.35912 68.90112-21.47852 70.56163-22.52484 72.22214-23.49416 73.88268-24.38129 75.54318-25.18623 77.20369-25.90512 78.86421-26.5336 80.52472-27.0721 82.18523-27.51805"/>
</svg>
