<svg xmlns="http://www.w3.org/2000/svg" xmlns:xlink="http://www.w3.org/1999/xlink" version="1.1" width="243.49pt" height="159.495pt" viewBox="0 0 243.49 159.495">
<path transform="matrix(1,0,0,-1,58.885,100.099)" stroke-width=".3985" stroke-linecap="butt" stroke-miterlimit="10" stroke-linejoin="miter" fill="none" stroke="#000000" d="M-56.69362 0H169.62258"/>
<path transform="matrix(1,0,0,-1,228.50757,100.099)" stroke-width=".31879" stroke-linecap="round" stroke-linejoin="round" fill="none" stroke="#000000" d="M-1.19551 1.59401C-1.09587 .99626 0 .09961 .29886 0 0-.09961-1.09587-.99626-1.19551-1.59401"/>
<text xml:space="preserve" transform="matrix(1 0 -0 1 0 159.495)" font-size="9.9626" font-family="CMMI10" font-style="italic"><tspan y="-57.251" x="232.483">x</tspan></text>
<path transform="matrix(1,0,0,-1,58.885,100.099)" stroke-width=".3985" stroke-linecap="butt" stroke-miterlimit="10" stroke-linejoin="miter" fill="none" stroke="#000000" d="M0-56.69362V84.58214"/>
<path transform="matrix(0,-1,-1,-0,58.885,15.516861)" stroke-width=".31879" stroke-linecap="round" stroke-linejoin="round" fill="none" stroke="#000000" d="M-1.19551 1.59401C-1.09587 .99626 0 .09961 .29886 0 0-.09961-1.09587-.99626-1.19551-1.59401"/>
<text xml:space="preserve" transform="matrix(1 0 -0 1 0 159.495)" font-size="9.9626" font-family="CMMI10" font-style="italic"><tspan y="-149.892" x="56.264">y</tspan></text>
<path transform="matrix(1,0,0,-1,58.885,100.099)" stroke-width="1.59404" stroke-linecap="butt" stroke-miterlimit="10" stroke-linejoin="miter" fill="none" stroke="#bf0040" d="M.2833-56.6071 1.9983-32.46239 3.71332-24.75543 5.42833-20.32451 7.14336-16.96802 8.85837-14.31917 10.57338-12.1409 12.28839-10.29092 14.0034-8.68275 15.71841-7.25928 17.43343-5.98459 19.14844-4.82927 20.86346-3.77344 22.57848-2.80109 24.29349-1.89969 26.0085-1.06013 27.72351-.27422 29.43852 .46454 31.15353 1.16179 32.86855 1.82182 34.58357 2.44772 36.29858 3.04332 38.0136 3.61168 39.72859 4.15495 41.4436 4.67487 43.15862 5.17444 44.87363 5.65326 46.58865 6.11565 48.30367 6.55986 50.01868 6.9898 51.73369 7.40417 53.4487 7.806 55.16371 8.19356 56.87872 8.57332 58.59373 8.93837 60.30876 9.29393 62.02377 9.63866 63.73878 9.97475 65.4538 10.30132 67.16881 10.6201 68.88382 10.93022 70.59883 11.23343 72.31384 11.52885 74.02887 11.81735 75.74388 12.09894 77.4589 12.3749 79.1739 12.64438 80.88892 12.90778 82.60393 13.16557 84.31894 13.41948 86.03395 13.66731 87.74898 13.90997 89.46399 14.14787 91.179 14.38187 92.89401 14.61111 94.60902 14.83604 96.32404 15.05707 98.03905 15.2755 99.75406 15.48874 101.46909 15.69809 103.18408 15.90355 104.8991 16.10771 106.6141 16.30667 108.32912 16.50304 110.04413 16.69594 111.75914 16.88757 113.47417 17.07571 115.18918 17.25998 116.90419 17.44208 118.6192 17.62115 120.33421 17.79807 122.04922 17.97194 123.76424 18.14366 125.47925 18.3132 127.19427 18.48059 128.90929 18.6454 130.6243 18.80803 132.33931 18.96895 134.05432 19.12724 135.76934 19.28383 137.48435 19.43825 139.19936 19.59093 140.91439 19.74188 142.6294 19.89067 144.3444 20.03773 146.05942 20.18306 147.77443 20.32668 149.48944 20.46898 151.20446 20.60912 152.91947 20.74797 154.63449 20.88551 156.3495 21.02089 158.06452 21.15541 159.77953 21.28778 161.49454 21.41927 163.20955 21.5499 164.92456 21.67792 166.63956 21.80553 168.35459 21.93182 170.0696 22.05597"/>
</svg>
