<svg xmlns="http://www.w3.org/2000/svg" xmlns:xlink="http://www.w3.org/1999/xlink" version="1.1" width="186.797pt" height="85.283pt" viewBox="0 0 186.797 85.283">
<path transform="matrix(1,0,0,-1,87.231,49.075998)" stroke-width=".3985" stroke-linecap="butt" stroke-miterlimit="10" stroke-linejoin="miter" fill="none" stroke="#000000" d="M-85.04042 0H84.58214"/>
<path transform="matrix(1,0,0,-1,171.81314,49.075998)" stroke-width=".31879" stroke-linecap="round" stroke-linejoin="round" fill="none" stroke="#000000" d="M-1.19551 1.59401C-1.09587 .99626 0 .09961 .29886 0 0-.09961-1.09587-.99626-1.19551-1.59401"/>
<text xml:space="preserve" transform="matrix(1 0 -0 1 .000015258789 85.283)" font-size="9.9626" font-family="CMMI10" font-style="italic"><tspan y="-34.063" x="175.79">x</tspan></text>
<path transform="matrix(1,0,0,-1,87.231,49.075998)" stroke-width=".3985" stroke-linecap="butt" stroke-miterlimit="10" stroke-linejoin="miter" fill="none" stroke="#000000" d="M0-34.01608V33.5578"/>
<path transform="matrix(0,-1,-1,-0,87.231,15.518196)" stroke-width=".31879" stroke-linecap="round" stroke-linejoin="round" fill="none" stroke="#000000" d="M-1.19551 1.59401C-1.09587 .99626 0 .09961 .29886 0 0-.09961-1.09587-.99626-1.19551-1.59401"/>
<text xml:space="preserve" transform="matrix(1 0 -0 1 0 85.283)" font-size="9.9626" font-family="CMMI10" font-style="italic"><tspan y="-75.68" x="84.61">y</tspan></text>
<path transform="matrix(1,0,0,-1,87.231,49.075998)" stroke-width="1.59404" stroke-linecap="butt" stroke-miterlimit="10" stroke-linejoin="miter" fill="none" stroke="#bf0040" d="M-82.20555-6.78133-80.54504-8.38127-78.88454-9.95226-77.22401-11.48906-75.5635-12.98607-73.903-14.43896-72.24248-15.84254-70.58197-17.19164-68.92146-18.48146-67.26093-19.70815-65.60042-20.86649-63.93991-21.95432-62.2794-22.96646-60.61888-23.89943-58.95837-24.75111-57.29787-25.51714-55.63734-26.19579-53.97684-26.78532-52.31633-27.28189-50.6558-27.68544-48.9953-27.9947-47.33478-28.2062-45.67426-28.32214-44.01375-28.3416-42.35324-28.26158-40.69272-28.08641-39.03221-27.81477-37.3717-27.44754-35.71118-26.98602-34.05067-26.43195-32.39017-25.7866-30.72964-25.0539-29.06914-24.23465-27.40862-23.33194-25.7481-22.3501-24.08759-21.2908-22.42708-20.15842-20.76657-18.9577-19.10605-17.6908-17.44554-16.36377-15.78503-14.98137-14.12451-13.54622-12.464-12.06563-10.8035-10.54309-9.14297-8.98466-7.48247-7.39552-5.82195-5.78085-4.16142-4.14586-2.50092-2.49702-.84041-.83954 .82008 .81921 2.48059 2.47713 4.1411 4.12596 5.80162 5.76097 7.46213 7.37563 9.12263 8.96521 10.78316 10.52406 12.44366 12.04747 14.10419 13.52847 15.76471 14.96364 17.42522 16.34732 19.08572 17.67522 20.74623 18.94211 22.40675 20.14415 24.06726 21.27696 25.72777 22.33755 27.38829 23.32071 29.0488 24.2234 30.7093 25.04437 32.36983 25.77838 34.03035 26.42416 35.69086 26.97998 37.35138 27.44237 39.01189 27.81088 40.6724 28.08424 42.33292 28.26028 43.99342 28.34074 45.65393 28.32301 47.31445 28.20839 48.97496 27.99774 50.63547 27.68977 52.29599 27.2875 53.95651 26.7927 55.61702 26.20357 57.27754 25.52621 58.93805 24.76105 60.59856 23.90982 62.25908 22.97813 63.91959 21.96729 65.5801 20.88033 67.2406 19.72241 68.90112 18.4966 70.56163 17.20721 72.22214 15.85942 73.88268 14.45671 75.54318 13.00424 77.20369 11.50766 78.86421 9.97086 80.52472 8.4003 82.18523 6.80078"/>
</svg>
