<svg xmlns="http://www.w3.org/2000/svg" xmlns:xlink="http://www.w3.org/1999/xlink" version="1.1" width="243.49pt" height="145.353pt" viewBox="0 0 243.49 145.353">
<path transform="matrix(1,0,0,-1,115.578,137.89499)" stroke-width=".3985" stroke-linecap="butt" stroke-miterlimit="10" stroke-linejoin="miter" fill="none" stroke="#000000" d="M-113.38724 0H112.92896"/>
<path transform="matrix(1,0,0,-1,228.50696,137.89499)" stroke-width=".31879" stroke-linecap="round" stroke-linejoin="round" fill="none" stroke="#000000" d="M-1.19551 1.59401C-1.09587 .99626 0 .09961 .29886 0 0-.09961-1.09587-.99626-1.19551-1.59401"/>
<text xml:space="preserve" transform="matrix(1 0 -0 1 0 145.353)" font-size="9.9626" font-family="CMMI10" font-style="italic"><tspan y="-5.313" x="232.483">x</tspan></text>
<path transform="matrix(1,0,0,-1,115.578,137.89499)" stroke-width=".3985" stroke-linecap="butt" stroke-miterlimit="10" stroke-linejoin="miter" fill="none" stroke="#000000" d="M0 0V118.59822"/>
<path transform="matrix(0,-1,-1,-0,115.578,19.296769)" stroke-width=".31879" stroke-linecap="round" stroke-linejoin="round" fill="none" stroke="#000000" d="M-1.19551 1.59401C-1.09587 .99626 0 .09961 .29886 0 0-.09961-1.09587-.99626-1.19551-1.59401"/>
<text xml:space="preserve" transform="matrix(1 0 -0 1 0 145.353)" font-size="9.9626" font-family="CMMI10" font-style="italic"><tspan y="-131.97" x="112.957">y</tspan></text>
<path transform="matrix(1,0,0,-1,115.578,137.89499)" stroke-width="1.59404" stroke-linecap="butt" stroke-miterlimit="10" stroke-linejoin="miter" fill="none" stroke="#bf0040" d="M-85.04042 127.56062C-85.04042 127.56062-79.92024 112.59433-77.95372 107.18636-75.98718 101.7784-72.83354 93.50009-70.867 88.58376-68.90048 83.66742-65.74683 76.17754-63.7803 71.75284-61.81378 67.32816-58.66014 60.62666-56.69362 56.69362-54.72708 52.76056-51.57344 46.84746-49.6069 43.40604-47.64038 39.96461-44.48672 34.83994-42.5202 31.89014-40.55367 28.94035-37.40002 24.6041-35.43349 22.14594-33.46696 19.68777-30.31332 16.13992-28.3468 14.17339-26.38028 12.20686-23.22662 9.44742-21.2601 7.97252-19.29356 6.49762-16.13992 4.5266-14.17339 3.54333-12.20686 2.56007-9.0532 1.37744-7.08669 .88583-5.12016 .39421-1.96652 0 0 0 1.96652 0 5.12016 .39421 7.08669 .88583 9.0532 1.37744 12.20686 2.56007 14.17339 3.54333 16.13992 4.5266 19.29356 6.49762 21.2601 7.97252 23.22662 9.44742 26.38028 12.20686 28.3468 14.17339 30.31332 16.13992 33.46696 19.68777 35.43349 22.14594 37.40002 24.6041 40.55367 28.94035 42.5202 31.89014 44.48672 34.83994 47.64038 39.96461 49.6069 43.40604 51.57344 46.84746 54.72708 52.76056 56.69362 56.69362 58.66014 60.62666 61.81378 67.32816 63.7803 71.75284 65.74683 76.17754 68.90048 83.66742 70.867 88.58376 72.83354 93.50009 75.98718 101.7784 77.95372 107.18636 79.92024 112.59433 85.04042 127.56062 85.04042 127.56062"/>
<text fill="#bf0040" xml:space="preserve" transform="matrix(1 0 -0 1 .000015258789 145.353)" font-size="9.9626" font-family="CMMI10" font-style="italic"><tspan y="-131.931" x="204.734">y</tspan></text>
<text fill="#bf0040" xml:space="preserve" transform="matrix(1 0 -0 1 .000015258789 145.353)" font-size="9.9626" font-family="CMR10"><tspan y="-131.931" x="212.74399">=</tspan></text>
<text fill="#bf0040" xml:space="preserve" transform="matrix(1 0 -0 1 .000015258789 145.353)" font-size="9.9626" font-family="CMMI10" font-style="italic"><tspan y="-131.931" x="223.26">x</tspan></text>
<text fill="#bf0040" xml:space="preserve" transform="matrix(1 0 -0 1 .000015258789 145.353)" font-size="6.9738" font-family="CMR7"><tspan y="-135.546" x="228.954">2</tspan></text>
</svg>
