<svg xmlns="http://www.w3.org/2000/svg" xmlns:xlink="http://www.w3.org/1999/xlink" version="1.1" width="243.49pt" height="273.344pt" viewBox="0 0 243.49 273.344">
<path transform="matrix(1,0,0,-1,115.578,140.446)" stroke-width=".3985" stroke-linecap="butt" stroke-miterlimit="10" stroke-linejoin="miter" fill="none" stroke="#000000" d="M-113.38724 0H112.92896"/>
<path transform="matrix(1,0,0,-1,228.50696,140.446)" stroke-width=".31879" stroke-linecap="round" stroke-linejoin="round" fill="none" stroke="#000000" d="M-1.19551 1.59401C-1.09587 .99626 0 .09961 .29886 0 0-.09961-1.09587-.99626-1.19551-1.59401"/>
<text xml:space="preserve" transform="matrix(1 0 -0 1 0 273.344)" font-size="9.9626" font-family="CMMI10" font-style="italic"><tspan y="-130.754" x="232.483">x</tspan></text>
<path transform="matrix(1,0,0,-1,115.578,140.446)" stroke-width=".3985" stroke-linecap="butt" stroke-miterlimit="10" stroke-linejoin="miter" fill="none" stroke="#000000" d="M0-113.38724V112.92896"/>
<path transform="matrix(0,-1,-1,-0,115.578,27.517037)" stroke-width=".31879" stroke-linecap="round" stroke-linejoin="round" fill="none" stroke="#000000" d="M-1.19551 1.59401C-1.09587 .99626 0 .09961 .29886 0 0-.09961-1.09587-.99626-1.19551-1.59401"/>
<text xml:space="preserve" transform="matrix(1 0 -0 1 0 273.344)" font-size="9.9626" font-family="CMMI10" font-style="italic"><tspan y="-251.741" x="112.957">y</tspan></text>
<path transform="matrix(1,0,0,-1,115.578,140.446)" stroke-width="1.59404" stroke-linecap="butt" stroke-miterlimit="10" stroke-linejoin="miter" fill="none" stroke="#bf0040" d="M-85.04042-130.11045C-85.04042-130.11045-79.92024-107.82323-77.95372-100.21774-75.98718-92.61226-72.83354-81.58447-70.867-75.29533-68.90048-69.00618-65.74683-59.9881-63.7803-54.88992-61.81378-49.79176-58.66014-42.5838-56.69362-38.55124-54.72708-34.51866-51.57344-28.91835-49.6069-25.82596-47.64038-22.73358-44.48672-18.54088-42.5202-16.26341-40.55367-13.98596-37.40002-10.99948-35.43349-9.41158-33.46696-7.82368-30.31332-5.84268-28.3468-4.8189-26.38028-3.79512-23.22662-2.61797-21.2601-2.03291-19.29356-1.44785-16.13992-.8737-14.17339-.60208-12.20686-.33047-9.0532-.15878-7.08669-.07524-5.12016 .00827-1.96652-.02086 0 0 1.96652 .02086 5.12016-.00827 7.08669 .07524 9.0532 .15878 12.20686 .33047 14.17339 .60208 16.13992 .8737 19.29356 1.44785 21.2601 2.03291 23.22662 2.61797 26.38028 3.79512 28.3468 4.8189 30.31332 5.84268 33.46696 7.82368 35.43349 9.41158 37.40002 10.99948 40.55367 13.98596 42.5202 16.26341 44.48672 18.54088 47.64038 22.73358 49.6069 25.82596 51.57344 28.91835 54.72708 34.51866 56.69362 38.55124 58.66014 42.5838 61.81378 49.79176 63.7803 54.88992 65.74683 59.9881 68.90048 69.00618 70.867 75.29533 72.83354 81.58447 75.98718 92.61226 77.95372 100.21774 79.92024 107.82323 85.04042 130.11045 85.04042 130.11045"/>
<text fill="#bf0040" xml:space="preserve" transform="matrix(1 0 -0 1 .000015258789 273.344)" font-size="9.9626" font-family="CMMI10" font-style="italic"><tspan y="-259.921" x="204.734">y</tspan></text>
<text fill="#bf0040" xml:space="preserve" transform="matrix(1 0 -0 1 .000015258789 273.344)" font-size="9.9626" font-family="CMR10"><tspan y="-259.921" x="212.74399">=</tspan></text>
<text fill="#bf0040" xml:space="preserve" transform="matrix(1 0 -0 1 .000015258789 273.344)" font-size="9.9626" font-family="CMMI10" font-style="italic"><tspan y="-259.921" x="223.26">x</tspan></text>
<text fill="#bf0040" xml:space="preserve" transform="matrix(1 0 -0 1 .000015258789 273.344)" font-size="6.9738" font-family="CMR7"><tspan y="-263.53599" x="228.954">3</tspan></text>
</svg>
